<?xml version="1.0" encoding="UTF-8" standalone="no"?>
<svg
   xml:space="preserve"
   width="16"
   height="16"
   version="1.1"
   id="svg4"
   sodipodi:docname="reload_tree.svg"
   inkscape:version="1.4.2 (ebf0e940d0, 2025-05-08)"
   xmlns:inkscape="http://www.inkscape.org/namespaces/inkscape"
   xmlns:sodipodi="http://sodipodi.sourceforge.net/DTD/sodipodi-0.dtd"
   xmlns="http://www.w3.org/2000/svg"
   xmlns:svg="http://www.w3.org/2000/svg"><defs
     id="defs4" /><sodipodi:namedview
     id="namedview4"
     pagecolor="#ffffff"
     bordercolor="#000000"
     borderopacity="0.25"
     inkscape:showpageshadow="2"
     inkscape:pageopacity="0.0"
     inkscape:pagecheckerboard="0"
     inkscape:deskcolor="#d1d1d1"
     inkscape:zoom="25.34375"
     inkscape:cx="5.5240444"
     inkscape:cy="12.251541"
     inkscape:window-width="1920"
     inkscape:window-height="1014"
     inkscape:window-x="0"
     inkscape:window-y="30"
     inkscape:window-maximized="1"
     inkscape:current-layer="svg4" /><path
     d="M3 10.043v-.055h-.041l.041.055z"
     style="fill:#e0e0e0;fill-opacity:1"
     id="path1" /><path
     d="M1 1v13a1 1 0 0 0 1 1h4.719l-1.5-2H3v-2.957l-.041-.055H3V7h2v2.988h.621A5.603 5.603 0 0 1 7 7.205V7h.2a5.288 5.288 0 0 1 1.673-1.111 5.57 5.57 0 0 1 3.082-.338A5.447 5.447 0 0 1 14.797 7H15V5H3V3h12V1H1z"
     style="fill:#e0e0e0;fill-opacity:1;stroke:#2e3236;stroke-opacity:1;paint-order:stroke fill markers;stroke-width:1.5;stroke-dasharray:none"
     id="path2" /><path
     fill="#e0e0e0"
     d="M6.466 10.988a4.518 4.518 0 1 1 4.518 4.518V14a3.012 3.012 0 1 0-3.012-3.012h1.506L7.218 14 4.96 10.988Z"
     style="stroke-width:.753078"
     id="path3" /><path
     d="M6.466 10.988a4.518 4.518 0 1 1 4.518 4.518V14a3.012 3.012 0 1 0-3.012-3.012h1.506L7.218 14 4.96 10.988Z"
     style="fill:#e0e0e0;stroke:#2e3236;stroke-opacity:1;paint-order:stroke fill markers;stroke-width:1.5;stroke-dasharray:none"
     id="path4" /></svg>
