<?xml version="1.0" encoding="UTF-8" standalone="no"?>
<!-- Created with Inkscape (http://www.inkscape.org/) -->

<svg
   width="256"
   height="256"
   viewBox="0 0 67.733334 67.733334"
   version="1.1"
   id="svg1"
   sodipodi:docname="logo.svg"
   inkscape:version="1.4.2 (ebf0e940d0, 2025-05-08)"
   xmlns:inkscape="http://www.inkscape.org/namespaces/inkscape"
   xmlns:sodipodi="http://sodipodi.sourceforge.net/DTD/sodipodi-0.dtd"
   xmlns="http://www.w3.org/2000/svg"
   xmlns:svg="http://www.w3.org/2000/svg">
  <sodipodi:namedview
     id="namedview1"
     pagecolor="#ffffff"
     bordercolor="#000000"
     borderopacity="0.25"
     inkscape:showpageshadow="2"
     inkscape:pageopacity="0.0"
     inkscape:pagecheckerboard="0"
     inkscape:deskcolor="#d1d1d1"
     inkscape:document-units="mm"
     inkscape:zoom="1.4449635"
     inkscape:cx="163.32592"
     inkscape:cy="230.10961"
     inkscape:window-width="1920"
     inkscape:window-height="1014"
     inkscape:window-x="0"
     inkscape:window-y="30"
     inkscape:window-maximized="1"
     inkscape:current-layer="layer1" />
  <defs
     id="defs1">
    <clipPath
       clipPathUnits="userSpaceOnUse"
       id="clipPath18-7">
      <path
         id="path19-5"
         style="fill:#2cdbff;fill-opacity:1;stroke:none;stroke-width:10.5833;stroke-linecap:round;stroke-linejoin:round;paint-order:markers stroke fill"
         d="m 364.85578,109.42881 c -33.42868,-2e-4 -60.52808,28.84428 -60.52809,64.42582 0.0171,6.41766 0.93504,12.79658 2.72334,18.92548 h 17.24495 v 23.30899 h 20.22047 v -22.85309 h 19.72799 v 23.2332 h 20.51503 v -23.6891 h 20.71244 V 169.205 h 19.73521 c -2.2897,-33.68166 -28.62486,-59.76584 -60.35134,-59.77619 z m -40.16189,59.89016 h 19.42982 v 23.42117 h -19.42982 z m 60.36323,46.63706 v 23.34896 h 20.22048 v -23.34896 z m -40.74273,11.33585 v 23.34956 h 20.22048 v -23.34956 z"
         sodipodi:nodetypes="cccccccccccccccccccccccccccccc" />
    </clipPath>
    <clipPath
       clipPathUnits="userSpaceOnUse"
       id="clipPath18">
      <path
         id="path19"
         style="fill:#2cdbff;fill-opacity:1;stroke:none;stroke-width:10.5833;stroke-linecap:round;stroke-linejoin:round;paint-order:markers stroke fill"
         d="m 364.85578,109.42881 c -33.42868,-2e-4 -60.52808,28.84428 -60.52809,64.42582 0.0171,6.41766 0.93504,12.79658 2.72334,18.92548 h 17.24495 v 23.30899 h 20.22047 v -22.85309 h 19.72799 v 23.2332 h 20.51503 v -23.6891 h 20.71244 V 169.205 h 19.73521 c -2.2897,-33.68166 -28.62486,-59.76584 -60.35134,-59.77619 z m -40.16189,59.89016 h 19.42982 v 23.42117 h -19.42982 z m 60.36323,46.63706 v 23.34896 h 20.22048 v -23.34896 z m -40.74273,11.33585 v 23.34956 h 20.22048 v -23.34956 z"
         sodipodi:nodetypes="cccccccccccccccccccccccccccccc" />
    </clipPath>
  </defs>
  <g
     inkscape:label="Layer 1"
     inkscape:groupmode="layer"
     id="layer1">
    <g
       id="g43"
       transform="matrix(0.36034642,0,0,0.36034642,13.770274,-1.3799426)">
      <g
         id="g2"
         style="stroke-width:0.752131"
         transform="matrix(1.1215585,0,0,1.1200846,-237.98774,-106.15646)">
        <path
           id="path15"
           style="fill:#01b0d5;fill-opacity:1;stroke:none;stroke-width:9.31514;stroke-linecap:round;stroke-linejoin:round;paint-order:markers stroke fill"
           d="m 262.02233,110.50812 c -39.11945,-1.9e-4 -70.83214,29.23189 -70.83215,65.29158 0.02,6.5039 1.09422,12.96854 3.18695,19.17981 h 20.18066 v 23.62221 h 23.66273 v -23.16019 h 23.0864 v 23.5454 h 24.00743 v -24.00742 h 24.23843 V 171.0876 h 23.09488 c -2.67952,-34.13428 -33.49786,-60.56898 -70.62533,-60.57948 z m -46.99888,60.69497 h 22.73746 V 194.939 h -22.73746 z m 70.63922,47.26377 v 23.66273 h 23.66273 v -23.66273 z m -47.67861,11.48819 v 23.66332 h 23.66274 v -23.66332 z"
           sodipodi:nodetypes="cccccccccccccccccccccccccccccc" />
        <g
           id="g17"
           transform="matrix(1.1702361,0,0,1.0134379,-164.94505,-0.39116176)"
           style="stroke-width:0.808222"
           clip-path="url(#clipPath18)">
          <path
             id="path16-7"
             style="fill:#52864d;fill-opacity:1;stroke:none;stroke-width:3.05852;stroke-linecap:butt;stroke-linejoin:round;stroke-dasharray:none;stroke-opacity:0.785;paint-order:markers stroke fill"
             d="m 393.61891,138.0333 c -1.59035,0.10921 -3.21876,-0.0791 -4.77505,0.35786 -3.17727,0.70963 -5.59006,3.07269 -7.00983,5.72197 -1.25135,2.17195 -1.99518,4.59529 -3.31613,6.716 -2.72713,-0.2485 -5.77773,-0.57446 -8.18857,0.9141 -1.96309,1.18837 -2.59276,3.60665 -2.02843,5.63809 0.18912,0.83221 0.52392,1.62673 0.87243,2.41032 -3.13417,-0.58174 -6.45541,-1.62291 -9.61446,-0.59296 -2.86615,1.01945 -4.40973,3.67279 -6.07491,5.891 -0.51815,0.67346 -1.01003,1.37984 -1.68025,1.93375 -0.56218,-0.34631 -0.65622,-0.92971 -0.76953,-1.49981 -0.51941,-2.05401 -2.166,-4.128 -4.58286,-4.30135 -1.99849,-0.18603 -3.80412,1.03316 -4.87763,2.50694 -1.18132,0.32425 -2.27461,-0.46547 -2.7669,-1.41652 -1.39063,-2.4471 -1.53558,-5.34458 -1.2384,-8.03917 -0.23444,-0.64037 -0.30353,-1.40011 -0.63916,-1.96742 -0.88755,-0.37833 -1.65975,-1.14655 -2.70359,-1.01421 -5.17595,-0.18163 -10.26998,2.04197 -13.6679,5.64275 -3.13029,3.22484 -5.01116,7.37769 -5.75167,11.64209 -1.05656,3.10105 -0.50303,6.75524 1.91683,9.1882 2.845,2.95625 7.38776,4.03191 11.51684,3.60172 0.49442,0.23466 0.1506,0.91202 0.15569,1.30774 -0.60991,2.79816 -1.8678,5.6615 -1.03944,8.54274 0.10337,0.62362 5.74686,1.33923 5.88285,1.90143 -1.41905,0.86542 -3.25828,2.06333 -2.42816,3.80221 1.5989,1.182 5.04708,1.05147 3.91333,3.27943 0.51807,1.38481 -2.14573,-0.0164 -2.22985,0.94838 -0.0273,0.70757 -0.49356,2.00417 -0.33407,2.68274 0.47204,0.98642 2.05868,1.53596 2.32139,2.618 1.09191,3.4976 -5.99996,6.52576 -3.8922,9.72044 1.14082,1.79799 3.03314,3.11911 5.14116,3.7803 0.98537,2.34 3.21163,4.47891 6.04966,4.56121 2.93392,0.138 5.49258,-2.03083 6.22726,-4.5826 0.61694,-1.85546 0.36578,-3.84759 -0.21761,-5.67649 -0.32467,-2.31686 -0.52757,-5.03104 1.26164,-6.90787 0.77088,-0.838 1.85571,-1.34036 2.86227,-1.86198 0.51725,-0.68931 1.47364,-1.17275 1.55679,-2.06803 0.72416,-0.38998 1.54908,-0.57173 2.32649,-0.84647 0.21184,0.0702 0.8965,-0.40283 1.37352,-0.53195 2.00472,-0.82242 3.41324,-2.82102 3.15674,-4.88524 -0.066,-1.24839 -0.79556,-2.34776 -0.86326,-3.59558 -0.39452,-2.67389 -0.9481,-5.53591 0.17192,-8.12323 0.82886,-1.84359 2.86712,-2.76387 4.76569,-3.41298 4.04018,-1.52938 8.23126,-2.91538 12.61359,-3.20778 -0.76403,2.908 0.51587,5.78078 1.59014,8.46152 0.5893,1.50502 1.13139,3.237 0.35246,4.77462 -0.0285,0.91789 -0.21594,1.86233 0.25657,2.71552 0.78782,2.15614 2.6504,4.21604 5.21802,4.4472 2.97401,0.29461 5.59248,-1.72382 6.99743,-4.00272 1.51833,-2.38439 2.08866,-5.40768 1.04134,-8.05189 1.12959,-2.04854 1.4378,-4.7289 -0.12799,-6.66254 -0.0889,-0.35773 -1.25517,-0.90897 -0.42155,-0.9294 2.89378,-0.56158 5.43945,-2.59356 6.22224,-5.28354 0.5292,-1.4348 0.35322,-2.96951 0.71954,-4.43109 0.39171,-2.13271 0.47621,-4.3531 1.34536,-6.3819 1.37218,0.88742 2.62977,1.937 4.10629,2.68769 2.39426,1.26911 5.07181,2.57741 7.91587,2.25811 2.12327,-0.23222 3.80185,-2.03384 3.84252,-4.00979 0.164,-1.51177 -0.53905,-2.92751 -0.63621,-4.41671 -0.76741,-4.69122 -3.909,-8.67117 -7.44319,-11.9357 -2.72996,-2.61402 -5.79825,-4.9303 -8.26225,-7.77638 -1.54783,-1.57001 -3.84042,-2.36794 -6.11283,-2.24077 z m -17.46415,65.54634 c -1.16728,-0.063 -1.94207,0.8342 -2.85893,1.35688 -0.40851,0.93634 -0.95005,1.89702 -1.99138,2.33837 -2.12543,1.05115 -4.65704,1.66581 -6.23949,3.45615 -0.34704,0.88581 -0.99177,1.73034 -0.76067,2.71505 0.14554,2.69893 2.23711,5.15116 5.01876,5.90903 3.84385,1.16922 8.69445,-0.20766 10.60455,-3.66412 0.93008,-1.68067 0.93795,-3.70949 0.25318,-5.46722 0.26519,-1.79234 0.65192,-3.89789 -0.73826,-5.39448 -0.79173,-0.89243 -2.06183,-1.32786 -3.28776,-1.24966 z"
             sodipodi:nodetypes="cccccccccccccccccccccccccccccccccccccccccccccccccccccccccccccccccccccccc" />
          <path
             style="fill:#ffffff;fill-opacity:1;stroke:none;stroke-width:0.213842px;stroke-linecap:butt;stroke-linejoin:miter;stroke-opacity:1"
             d="m 325.9315,113.75021 c -0.57337,4.34616 -2.22888,9.3337 0.88157,13.3104 2.69975,2.58095 6.64898,2.81837 10.00086,2.85922 4.23943,-0.0125 4.02628,5.48623 6.4429,8.00751 2.73514,5.45306 8.60502,1.14317 9.37723,-3.12869 2.21451,-2.51058 6.57722,-0.0634 8.80056,1.89315 2.09485,1.68123 6.27929,7.78301 6.71408,3.45688 -0.27672,-3.24022 1.5379,-5.27198 4.60141,-4.59146 1.4757,-2.7685 0.10568,-7.50714 4.43482,-7.84902 4.21586,-1.33361 6.84049,-5.10969 8.4502,-9.05314 2.04797,-3.92668 1.37511,-8.25657 -0.17798,-12.33648 -0.49278,-4.30913 -4.46373,-7.063438 -8.42366,-7.785151 -7.20162,-1.653424 -14.69602,-2.808525 -21.86416,-1.25516 -5.94236,0.85607 -11.17324,3.827661 -16.46281,6.343271 -4.88338,1.15977 -10.52119,2.68573 -12.49065,7.86462 -0.27056,0.70721 -0.41714,1.48971 -0.28437,2.26405 z"
             id="path17" />
        </g>
        <path
           id="path31"
           style="fill:none;fill-opacity:1;stroke:#084551;stroke-width:2.32878;stroke-linecap:round;stroke-linejoin:round;stroke-dasharray:none;stroke-opacity:1;paint-order:markers stroke fill"
           d="m 262.02233,110.54682 c -39.11945,-2e-4 -70.83214,29.23189 -70.83215,65.29158 0.02,6.5039 1.09422,12.96854 3.18695,19.17981 h 20.18066 v 23.62221 h 23.66273 v -23.16019 h 23.0864 v 23.5454 h 24.00743 v -24.00742 h 24.23843 V 171.1263 h 23.09488 c -2.67952,-34.13427 -33.49786,-60.56897 -70.62533,-60.57948 z m -46.99888,60.69497 h 22.73746 v 23.73591 h -22.73746 z m 70.63922,47.26377 v 23.66273 h 23.66273 v -23.66273 z m -47.67861,11.48818 v 23.66333 h 23.66274 v -23.66333 z"
           sodipodi:nodetypes="cccccccccccccccccccccccccccccc" />
      </g>
    </g>
  </g>
</svg>
